<?xml version="1.0" encoding="UTF-8"?>
<svg width="275px" height="26px" viewBox="0 0 275 26" version="1.1" xmlns="http://www.w3.org/2000/svg" xmlns:xlink="http://www.w3.org/1999/xlink">
    <!-- Generator: Sketch 52.4 (67378) - http://www.bohemiancoding.com/sketch -->
    <title>DF-UK-Logo</title>
    <desc>Created with Sketch.</desc>
    <g id="Page-1" stroke="none" stroke-width="1" fill="none" fill-rule="evenodd">
        <g id="DF-UK-Logo">
            <g id="Ship-1" transform="translate(0.000000, 0.000000)" fill="#0F3256">
                <polygon id="Rectangle" points="0.507729801 15.143388 8.92258269 8.65645463 9.11347719 25.0818949 3.08815248 25.0818949 3.08815248 18.8516284"></polygon>
                <polygon id="Rectangle" transform="translate(14.457470, 16.869175) scale(-1, 1) translate(-14.457470, -16.869175) " points="10.1545961 15.143388 18.569449 8.65645463 18.7603435 25.0818949 12.7350188 25.0818949 12.7350188 18.8516284"></polygon>
                <path d="M10.9371396,5.53964259 L19.1836582,12.0199853 L19.1836582,14.2346081 L9.60273735,6.83336083 L0.167714458,14.3173036 L0.0218165149,12.1639874 L8.39167287,5.53964259 C8.75807052,5.20915075 9.17542499,5.04407064 9.64373627,5.04440225 C10.1120476,5.04473386 10.543182,5.20981397 10.9371396,5.53964259 Z" id="Rectangle-2"></path>
                <path d="M7.93569532,0.0831774244 L11.4258032,0.0831774244 C11.5054871,0.0971050879 11.5649015,0.125732446 11.6040462,0.169059499 C11.643191,0.212386552 11.6677707,0.276960027 11.6777855,0.362779925 L11.6777855,2.62995011 L7.61594703,2.62995011 L7.61594703,0.423791172 C7.61007454,0.328561812 7.63967971,0.247366334 7.70476255,0.180204738 C7.76984539,0.113043142 7.84682298,0.0807007045 7.93569532,0.0831774244 Z" id="Rectangle-3"></path>
                <path d="M4.06183842,5.60032741 L4.06183842,3.05355472 L4.06183842,2.7782813 C4.05792342,2.71504205 4.07536785,2.66132365 4.11417171,2.61712611 C4.15297556,2.57292858 4.20809274,2.54861994 4.27952323,2.54420019 L7.61594703,2.54420019 L11.6777855,2.54420019 L14.8420478,2.54420019 C14.9745463,2.54140627 15.0742416,2.5712927 15.1411339,2.63385952 C15.2080262,2.69642633 15.2382796,2.78808569 15.2318941,2.9088376 L15.2318941,5.60032741 L16.8879349,5.60032741 C17.0095579,5.6070218 17.0994889,5.63945751 17.1577283,5.69763452 C17.2159677,5.75581153 17.250996,5.84691648 17.2628132,5.97094937 L17.2628132,10.6938728 L16.2722691,10.6938728 L16.2722691,6.61896594 L14.2368564,6.61896594 C14.0743327,6.61632381 13.9475009,6.57462133 13.8563612,6.4938585 C13.7652215,6.41309567 13.7194735,6.28683996 13.7191171,6.11509135 L13.7191171,3.56138592 L5.59175251,3.56138592 L5.59175251,5.60032741 L5.59175251,6.31900105 C5.59650938,6.38493464 5.57849165,6.44896925 5.5376993,6.51110487 C5.49690697,6.57324048 5.43585533,6.60919418 5.3545444,6.61896594 L3.0531035,6.61896594 L3.0531035,10.2427782 L2.0309192,10.6938728 L2.0309192,5.94149297 C2.0309192,5.84652787 2.06018866,5.76524172 2.11872758,5.69763452 C2.1772665,5.63002732 2.25211614,5.59759162 2.34327653,5.60032741 L4.06183842,5.60032741 Z" id="Rectangle-11"></path>
            </g>
            <g id="Ship-2" transform="translate(21.351731, 0.000000)" fill="#FF4A0E">
                <polygon id="Rectangle" points="0.507729801 15.143388 8.92258269 8.65645463 9.11347719 25.0818949 3.08815248 25.0818949 3.08815248 18.8516284"></polygon>
                <polygon id="Rectangle" transform="translate(14.457470, 16.869175) scale(-1, 1) translate(-14.457470, -16.869175) " points="10.1545961 15.143388 18.569449 8.65645463 18.7603435 25.0818949 12.7350188 25.0818949 12.7350188 18.8516284"></polygon>
                <path d="M10.9371396,5.53964259 L19.1836582,12.0199853 L19.1836582,14.2346081 L9.60273735,6.83336083 L0.167714458,14.3173036 L0.0218165149,12.1639874 L8.39167287,5.53964259 C8.75807052,5.20915075 9.17542499,5.04407064 9.64373627,5.04440225 C10.1120476,5.04473386 10.543182,5.20981397 10.9371396,5.53964259 Z" id="Rectangle-2"></path>
                <path d="M7.93569532,0.0831774244 L11.4258032,0.0831774244 C11.5054871,0.0971050879 11.5649015,0.125732446 11.6040462,0.169059499 C11.643191,0.212386552 11.6677707,0.276960027 11.6777855,0.362779925 L11.6777855,2.62995011 L7.61594703,2.62995011 L7.61594703,0.423791172 C7.61007454,0.328561812 7.63967971,0.247366334 7.70476255,0.180204738 C7.76984539,0.113043142 7.84682298,0.0807007045 7.93569532,0.0831774244 Z" id="Rectangle-3"></path>
                <path d="M4.06183842,5.60032741 L4.06183842,3.05355472 L4.06183842,2.7782813 C4.05792342,2.71504205 4.07536785,2.66132365 4.11417171,2.61712611 C4.15297556,2.57292858 4.20809274,2.54861994 4.27952323,2.54420019 L7.61594703,2.54420019 L11.6777855,2.54420019 L14.8420478,2.54420019 C14.9745463,2.54140627 15.0742416,2.5712927 15.1411339,2.63385952 C15.2080262,2.69642633 15.2382796,2.78808569 15.2318941,2.9088376 L15.2318941,5.60032741 L16.8879349,5.60032741 C17.0095579,5.6070218 17.0994889,5.63945751 17.1577283,5.69763452 C17.2159677,5.75581153 17.250996,5.84691648 17.2628132,5.97094937 L17.2628132,10.6938728 L16.2722691,10.6938728 L16.2722691,6.61896594 L14.2368564,6.61896594 C14.0743327,6.61632381 13.9475009,6.57462133 13.8563612,6.4938585 C13.7652215,6.41309567 13.7194735,6.28683996 13.7191171,6.11509135 L13.7191171,3.56138592 L5.59175251,3.56138592 L5.59175251,5.60032741 L5.59175251,6.31900105 C5.59650938,6.38493464 5.57849165,6.44896925 5.5376993,6.51110487 C5.49690697,6.57324048 5.43585533,6.60919418 5.3545444,6.61896594 L3.0531035,6.61896594 L3.0531035,10.2427782 L2.0309192,10.6938728 L2.0309192,5.94149297 C2.0309192,5.84652787 2.06018866,5.76524172 2.11872758,5.69763452 C2.1772665,5.63002732 2.25211614,5.59759162 2.34327653,5.60032741 L4.06183842,5.60032741 Z" id="Rectangle-11"></path>
            </g>
            <g id="Ship-3" transform="translate(42.703461, 0.000000)" fill="#45B7ED">
                <polygon id="Rectangle" points="0.507729801 15.143388 8.92258269 8.65645463 9.11347719 25.0818949 3.08815248 25.0818949 3.08815248 18.8516284"></polygon>
                <polygon id="Rectangle" transform="translate(14.457470, 16.869175) scale(-1, 1) translate(-14.457470, -16.869175) " points="10.1545961 15.143388 18.569449 8.65645463 18.7603435 25.0818949 12.7350188 25.0818949 12.7350188 18.8516284"></polygon>
                <path d="M10.9371396,5.53964259 L19.1836582,12.0199853 L19.1836582,14.2346081 L9.60273735,6.83336083 L0.167714458,14.3173036 L0.0218165149,12.1639874 L8.39167287,5.53964259 C8.75807052,5.20915075 9.17542499,5.04407064 9.64373627,5.04440225 C10.1120476,5.04473386 10.543182,5.20981397 10.9371396,5.53964259 Z" id="Rectangle-2"></path>
                <path d="M7.93569532,0.0831774244 L11.4258032,0.0831774244 C11.5054871,0.0971050879 11.5649015,0.125732446 11.6040462,0.169059499 C11.643191,0.212386552 11.6677707,0.276960027 11.6777855,0.362779925 L11.6777855,2.62995011 L7.61594703,2.62995011 L7.61594703,0.423791172 C7.61007454,0.328561812 7.63967971,0.247366334 7.70476255,0.180204738 C7.76984539,0.113043142 7.84682298,0.0807007045 7.93569532,0.0831774244 Z" id="Rectangle-3"></path>
                <path d="M4.06183842,5.60032741 L4.06183842,3.05355472 L4.06183842,2.7782813 C4.05792342,2.71504205 4.07536785,2.66132365 4.11417171,2.61712611 C4.15297556,2.57292858 4.20809274,2.54861994 4.27952323,2.54420019 L7.61594703,2.54420019 L11.6777855,2.54420019 L14.8420478,2.54420019 C14.9745463,2.54140627 15.0742416,2.5712927 15.1411339,2.63385952 C15.2080262,2.69642633 15.2382796,2.78808569 15.2318941,2.9088376 L15.2318941,5.60032741 L16.8879349,5.60032741 C17.0095579,5.6070218 17.0994889,5.63945751 17.1577283,5.69763452 C17.2159677,5.75581153 17.250996,5.84691648 17.2628132,5.97094937 L17.2628132,10.6938728 L16.2722691,10.6938728 L16.2722691,6.61896594 L14.2368564,6.61896594 C14.0743327,6.61632381 13.9475009,6.57462133 13.8563612,6.4938585 C13.7652215,6.41309567 13.7194735,6.28683996 13.7191171,6.11509135 L13.7191171,3.56138592 L5.59175251,3.56138592 L5.59175251,5.60032741 L5.59175251,6.31900105 C5.59650938,6.38493464 5.57849165,6.44896925 5.5376993,6.51110487 C5.49690697,6.57324048 5.43585533,6.60919418 5.3545444,6.61896594 L3.0531035,6.61896594 L3.0531035,10.2427782 L2.0309192,10.6938728 L2.0309192,5.94149297 C2.0309192,5.84652787 2.06018866,5.76524172 2.11872758,5.69763452 C2.1772665,5.63002732 2.25211614,5.59759162 2.34327653,5.60032741 L4.06183842,5.60032741 Z" id="Rectangle-11"></path>
            </g>
            <path d="M68.8571874,22.464069 L68.8571874,4.03713388 C68.8571874,2.58592837 70.0020735,1.43846355 71.4500176,1.43846355 L78.0499488,1.43846355 C85.4580353,1.43846355 90.5763487,6.53455731 90.5763487,13.1831035 L90.5763487,13.2506014 C90.5763487,19.8991476 85.4580353,25.0627392 78.0499488,25.0627392 L71.4500176,25.0627392 C70.0020735,25.0627392 68.8571874,23.9152744 68.8571874,22.464069 Z M74.0428477,20.3716331 L78.0499488,20.3716331 C82.2927617,20.3716331 85.1549771,17.502971 85.1549771,13.3180993 L85.1549771,13.2506014 C85.1549771,9.06572975 82.2927617,6.12956973 78.0499488,6.12956973 L74.0428477,6.12956973 L74.0428477,20.3716331 Z M92.9098459,2.72092423 C92.9098459,4.20587871 94.1557511,5.15084974 95.7720608,5.15084974 C97.3883705,5.15084974 98.6342757,4.20587871 98.6342757,2.72092423 L98.6342757,2.6534263 C98.6342757,1.16847183 97.3883705,0.257249766 95.7720608,0.257249766 C94.1557511,0.257249766 92.9098459,1.16847183 92.9098459,2.6534263 L92.9098459,2.72092423 Z M93.2129041,22.7003117 C93.2129041,24.1177682 94.3577899,25.265233 95.7720608,25.265233 C97.1863317,25.265233 98.3312184,24.1177682 98.3312184,22.7003117 L98.3312184,9.33572144 C98.3312184,7.91826489 97.1863317,6.77080007 95.7720608,6.77080007 C94.3577899,6.77080007 93.2129041,7.91826489 93.2129041,9.33572144 L93.2129041,22.7003117 Z M101.47287,22.7003117 L101.47287,9.33572144 C101.47287,7.91826489 102.617756,6.77080007 104.032027,6.77080007 C105.446298,6.77080007 106.591184,7.91826489 106.591184,9.33572144 L106.591184,10.1456966 C107.331992,8.3907504 108.544224,6.77080007 110.059515,6.77080007 C111.642151,6.77080007 112.551326,7.817018 112.551326,9.26822347 C112.551326,10.6181821 111.675824,11.4281572 110.631958,11.6644 C108.039128,12.2718814 106.591184,14.2630703 106.591184,17.9079586 L106.591184,22.7003117 C106.591184,24.1177682 105.446298,25.265233 104.032027,25.265233 C102.617756,25.265233 101.47287,24.1177682 101.47287,22.7003117 Z M117.511326,14.60056 L125.22247,14.60056 C124.919412,12.3056304 123.572487,10.7531779 121.417407,10.7531779 C119.296002,10.7531779 117.915404,12.2718814 117.511326,14.60056 Z M128.185705,23.2740441 C126.603068,24.6240028 124.549007,25.4677268 121.922505,25.4677268 C116.501132,25.4677268 112.494031,21.6540937 112.494031,16.1192635 L112.494031,16.0517655 C112.494031,10.8881739 116.164402,6.63580421 121.417407,6.63580421 C127.444896,6.63580421 130.105072,11.5969021 130.105072,15.3430373 C130.105072,16.8279917 129.061206,17.8067118 127.714281,17.8067118 L117.578672,17.8067118 C118.083769,20.1353903 119.700078,21.3503531 121.989851,21.3503531 C123.404122,21.3503531 124.582681,20.9116165 125.626548,20.1353903 C125.996952,19.8653986 126.333683,19.7304027 126.872453,19.7304027 C128.017339,19.7304027 128.859167,20.6078758 128.859167,21.7553406 C128.859167,22.4303199 128.556109,22.9365545 128.185705,23.2740441 Z M140.856849,25.4677268 C143.820083,25.4677268 145.739451,24.5227558 147.254741,23.1390482 C147.692492,22.7340607 147.99555,22.1940772 147.99555,21.5190979 C147.99555,20.3041352 147.052703,19.3254152 145.84047,19.3254152 C145.234354,19.3254152 144.729258,19.5954069 144.459873,19.7979007 C143.483353,20.5741269 142.439485,21.0466124 141.092561,21.0466124 C138.297692,21.0466124 136.513017,18.8191806 136.513017,16.0517655 L136.513017,15.9842676 C136.513017,13.3180993 138.331365,11.0569187 140.890522,11.0569187 C142.237447,11.0569187 143.180294,11.4956552 144.089468,12.2043835 C144.392526,12.4406262 144.897623,12.710618 145.571085,12.710618 C146.850664,12.710618 147.894531,11.698149 147.894531,10.4156883 C147.894531,9.53821525 147.423107,8.93073382 147.086376,8.66074213 C145.571085,7.37828144 143.651717,6.63580421 140.924195,6.63580421 C135.401804,6.63580421 131.462049,10.8881739 131.462049,16.0517655 L131.462049,16.1192635 C131.462049,21.2828551 135.435477,25.4677268 140.856849,25.4677268 Z M155.986131,25.3664799 C157.097344,25.3664799 157.972845,25.2314841 158.915692,24.8602455 C159.622828,24.5902537 160.228944,23.8477765 160.228944,22.9365545 C160.228944,21.7553406 159.252424,20.8103696 158.107537,20.8103696 C158.006518,20.8103696 157.669787,20.8441186 157.501421,20.8441186 C156.356536,20.8441186 155.851439,20.2703862 155.851439,19.0891724 L155.851439,11.3606594 L158.107537,11.3606594 C159.31977,11.3606594 160.29629,10.3819393 160.29629,9.16697657 C160.29629,7.95201386 159.31977,6.97329386 158.107537,6.97329386 L155.851439,6.97329386 L155.851439,4.71211318 C155.851439,3.29465664 154.706553,2.14719182 153.292282,2.14719182 C151.87801,2.14719182 150.733124,3.29465664 150.733124,4.71211318 L150.733124,6.97329386 L150.564759,6.97329386 C149.352527,6.97329386 148.376006,7.95201386 148.376006,9.16697657 C148.376006,10.3819393 149.352527,11.3606594 150.564759,11.3606594 L150.733124,11.3606594 L150.733124,19.9328965 C150.733124,24.1177682 152.854531,25.3664799 155.986131,25.3664799 Z M171.159138,22.6665627 C171.159138,24.1177682 172.304024,25.265233 173.751968,25.265233 C175.199912,25.265233 176.344798,24.1177682 176.344798,22.6665627 L176.344798,15.9167697 L185.436541,15.9167697 C186.749792,15.9167697 187.793658,14.8705518 187.793658,13.5543421 C187.793658,12.2381325 186.749792,11.1919145 185.436541,11.1919145 L176.344798,11.1919145 L176.344798,6.16331869 L186.951831,6.16331869 C188.265082,6.16331869 189.308949,5.11710077 189.308949,3.80089112 C189.308949,2.48468147 188.265082,1.43846355 186.951831,1.43846355 L173.751968,1.43846355 C172.304024,1.43846355 171.159138,2.58592837 171.159138,4.03713388 L171.159138,22.6665627 Z M194.673027,14.60056 L202.384171,14.60056 C202.081112,12.3056304 200.734188,10.7531779 198.579108,10.7531779 C196.457702,10.7531779 195.077104,12.2718814 194.673027,14.60056 Z M205.347405,23.2740441 C203.764768,24.6240028 201.710708,25.4677268 199.084205,25.4677268 C193.662833,25.4677268 189.655732,21.6540937 189.655732,16.1192635 L189.655732,16.0517655 C189.655732,10.8881739 193.326102,6.63580421 198.579108,6.63580421 C204.606597,6.63580421 207.266773,11.5969021 207.266773,15.3430373 C207.266773,16.8279917 206.222906,17.8067118 204.875981,17.8067118 L194.740373,17.8067118 C195.24547,20.1353903 196.86178,21.3503531 199.151551,21.3503531 C200.565822,21.3503531 201.744381,20.9116165 202.788248,20.1353903 C203.158653,19.8653986 203.495383,19.7304027 204.034153,19.7304027 C205.179039,19.7304027 206.020868,20.6078758 206.020868,21.7553406 C206.020868,22.4303199 205.717809,22.9365545 205.347405,23.2740441 Z M209.499251,22.7003117 C209.499251,24.1177682 210.644136,25.265233 212.058407,25.265233 C213.472678,25.265233 214.617564,24.1177682 214.617564,22.7003117 L214.617564,17.9079586 C214.617564,14.2630703 216.065509,12.2718814 218.658339,11.6644 C219.702205,11.4281572 220.577707,10.6181821 220.577707,9.26822347 C220.577707,7.817018 219.668532,6.77080007 218.085895,6.77080007 C216.570605,6.77080007 215.358373,8.3907504 214.617564,10.1456966 L214.617564,9.33572144 C214.617564,7.91826489 213.472678,6.77080007 212.058407,6.77080007 C210.644136,6.77080007 209.499251,7.91826489 209.499251,9.33572144 L209.499251,22.7003117 Z M221.90101,22.7003117 C221.90101,24.1177682 223.045896,25.265233 224.460166,25.265233 C225.874438,25.265233 227.019324,24.1177682 227.019324,22.7003117 L227.019324,17.9079586 C227.019324,14.2630703 228.467268,12.2718814 231.060098,11.6644 C232.103965,11.4281572 232.979466,10.6181821 232.979466,9.26822347 C232.979466,7.817018 232.070292,6.77080007 230.487655,6.77080007 C228.972365,6.77080007 227.760132,8.3907504 227.019324,10.1456966 L227.019324,9.33572144 C227.019324,7.91826489 225.874438,6.77080007 224.460166,6.77080007 C223.045896,6.77080007 221.90101,7.91826489 221.90101,9.33572144 L221.90101,22.7003117 Z M234.235423,2.72092423 C234.235423,4.20587871 235.481329,5.15084974 237.097638,5.15084974 C238.713948,5.15084974 239.959853,4.20587871 239.959853,2.72092423 L239.959853,2.6534263 C239.959853,1.16847183 238.713948,0.257249766 237.097638,0.257249766 C235.481329,0.257249766 234.235423,1.16847183 234.235423,2.6534263 L234.235423,2.72092423 Z M234.538481,22.7003117 C234.538481,24.1177682 235.683367,25.265233 237.097638,25.265233 C238.511909,25.265233 239.656795,24.1177682 239.656795,22.7003117 L239.656795,9.33572144 C239.656795,7.91826489 238.511909,6.77080007 237.097638,6.77080007 C235.683367,6.77080007 234.538481,7.91826489 234.538481,9.33572144 L234.538481,22.7003117 Z M246.940241,14.60056 L254.651385,14.60056 C254.348327,12.3056304 253.001402,10.7531779 250.846322,10.7531779 C248.724915,10.7531779 247.344318,12.2718814 246.940241,14.60056 Z M257.614619,23.2740441 C256.031983,24.6240028 253.977922,25.4677268 251.351419,25.4677268 C245.930047,25.4677268 241.922946,21.6540937 241.922946,16.1192635 L241.922946,16.0517655 C241.922946,10.8881739 245.593315,6.63580421 250.846322,6.63580421 C256.87381,6.63580421 259.533987,11.5969021 259.533987,15.3430373 C259.533987,16.8279917 258.49012,17.8067118 257.143195,17.8067118 L247.007586,17.8067118 C247.512683,20.1353903 249.128993,21.3503531 251.418765,21.3503531 C252.833036,21.3503531 254.011595,20.9116165 255.055462,20.1353903 C255.425866,19.8653986 255.762598,19.7304027 256.301368,19.7304027 C257.446254,19.7304027 258.288081,20.6078758 258.288081,21.7553406 C258.288081,22.4303199 257.985024,22.9365545 257.614619,23.2740441 Z M268.09701,25.4002289 C272.003093,25.4002289 275,23.5777848 275,19.5616579 L275,19.49416 C275,16.1867614 272.070439,14.9717987 269.544954,14.1280745 C267.591914,13.4530952 265.874585,12.9806097 265.874585,11.9681407 L265.874585,11.9006428 C265.874585,11.1919145 266.514374,10.6519311 267.76028,10.6519311 C268.837819,10.6519311 270.218417,11.0906676 271.666361,11.7993959 C272.003093,11.9681407 272.238804,12.0356387 272.609209,12.0356387 C273.754095,12.0356387 274.663269,11.1581656 274.663269,10.0107007 C274.663269,9.13322763 274.191846,8.45824833 273.451037,8.08700971 C271.700034,7.20953662 269.746993,6.70330214 267.861298,6.70330214 C264.224602,6.70330214 261.261368,8.76198903 261.261368,12.4406262 L261.261368,12.5081242 C261.261368,16.0180166 264.123583,17.1992303 266.649066,17.9417076 C268.635781,18.549189 270.386783,18.9204275 270.386783,20.0341434 L270.386783,20.1016414 C270.386783,20.9116165 269.71332,21.4516 268.231703,21.4516 C266.783759,21.4516 265.06643,20.9116165 263.349101,19.8316496 C263.079716,19.6629048 262.709312,19.5616579 262.338907,19.5616579 C261.194022,19.5616579 260.31852,20.439131 260.31852,21.5865959 C260.31852,22.396571 260.756271,23.0040524 261.295041,23.341542 C263.483793,24.7589986 265.874585,25.4002289 268.09701,25.4002289 Z" id="Direct-Ferries" fill="#0F3256" fill-rule="nonzero"></path>
        </g>
    </g>
</svg>